<svg xmlns="http://www.w3.org/2000/svg" viewBox="0 0 512 512">
<g fill="none">
<circle cx="256" cy="256" r="184.32" stroke="#4338CA" stroke-width="30" />
<path d="M 104.86 256.00 L 106.75 262.51 L 108.64 268.98 L 110.53 275.36 L 112.41 281.63 L 114.30 287.74 L 116.19 293.66 L 118.08 299.34 L 119.97 304.75 L 121.86 309.87 L 123.75 314.65 L 125.64 319.07 L 127.53 323.10 L 129.42 326.72 L 131.31 329.90 L 133.20 332.63 L 135.09 334.88 L 136.98 336.65 L 138.86 337.92 L 140.75 338.69 L 142.64 338.94 L 144.53 338.69 L 146.42 337.92 L 148.31 336.65 L 150.20 334.88 L 152.09 332.63 L 153.98 329.90 L 155.87 326.72 L 157.76 323.10 L 159.65 319.07 L 161.54 314.65 L 163.43 309.87 L 165.31 304.75 L 167.20 299.34 L 169.09 293.66 L 170.98 287.74 L 172.87 281.63 L 174.76 275.36 L 176.65 268.98 L 178.54 262.51 L 180.43 256.00 L 182.32 249.49 L 184.21 243.02 L 186.10 236.64 L 187.99 230.37 L 189.88 224.26 L 191.76 218.34 L 193.65 212.66 L 195.54 207.25 L 197.43 202.13 L 199.32 197.35 L 201.21 192.93 L 203.10 188.90 L 204.99 185.28 L 206.88 182.10 L 208.77 179.37 L 210.66 177.12 L 212.55 175.35 L 214.44 174.08 L 216.33 173.31 L 218.21 173.06 L 220.10 173.31 L 221.99 174.08 L 223.88 175.35 L 225.77 177.12 L 227.66 179.37 L 229.55 182.10 L 231.44 185.28 L 233.33 188.90 L 235.22 192.93 L 237.11 197.35 L 239.00 202.13 L 240.89 207.25 L 242.78 212.66 L 244.66 218.34 L 246.55 224.26 L 248.44 230.37 L 250.33 236.64 L 252.22 243.02 L 254.11 249.49 L 256.00 256.00 L 257.89 262.51 L 259.78 268.98 L 261.67 275.36 L 263.56 281.63 L 265.45 287.74 L 267.34 293.66 L 269.22 299.34 L 271.11 304.75 L 273.00 309.87 L 274.89 314.65 L 276.78 319.07 L 278.67 323.10 L 280.56 326.72 L 282.45 329.90 L 284.34 332.63 L 286.23 334.88 L 288.12 336.65 L 290.01 337.92 L 291.90 338.69 L 293.79 338.94 L 295.67 338.69 L 297.56 337.92 L 299.45 336.65 L 301.34 334.88 L 303.23 332.63 L 305.12 329.90 L 307.01 326.72 L 308.90 323.10 L 310.79 319.07 L 312.68 314.65 L 314.57 309.87 L 316.46 304.75 L 318.35 299.34 L 320.24 293.66 L 322.12 287.74 L 324.01 281.63 L 325.90 275.36 L 327.79 268.98 L 329.68 262.51 L 331.57 256.00 L 333.46 249.49 L 335.35 243.02 L 337.24 236.64 L 339.13 230.37 L 341.02 224.26 L 342.91 218.34 L 344.80 212.66 L 346.69 207.25 L 348.57 202.13 L 350.46 197.35 L 352.35 192.93 L 354.24 188.90 L 356.13 185.28 L 358.02 182.10 L 359.91 179.37 L 361.80 177.12 L 363.69 175.35 L 365.58 174.08 L 367.47 173.31 L 369.36 173.06 L 371.25 173.31 L 373.14 174.08 L 375.02 175.35 L 376.91 177.12 L 378.80 179.37 L 380.69 182.10 L 382.58 185.28 L 384.47 188.90 L 386.36 192.93 L 388.25 197.35 L 390.14 202.13 L 392.03 207.25 L 393.92 212.66 L 395.81 218.34 L 397.70 224.26 L 399.59 230.37 L 401.47 236.64 L 403.36 243.02 L 405.25 249.49 L 407.14 256.00" stroke="#06B6D4" stroke-width="25" stroke-linecap="round" stroke-linejoin="round"/>
<rect x="283.65" y="288.77" width="175.10" height="202.75" rx="30.72" ry="30.72" fill="#FFFFFF" fill-opacity="0.94" stroke="none" />
<polygon points="420.23,288.77 458.75,288.77 458.75,327.29" fill="#E2E8F0"/>
<line x1="420.23" y1="288.77" x2="458.75" y2="327.29" stroke="#CBD5E1" stroke-width="5.12"/>
<rect x="304.66" y="307.68" width="119.07" height="15.36" rx="7.68" ry="7.68" fill="#64748B"/>
<rect x="304.66" y="329.98" width="91.05" height="15.36" rx="7.68" ry="7.68" fill="#64748B"/>
<rect x="304.66" y="352.28" width="119.07" height="15.36" rx="7.68" ry="7.68" fill="#64748B"/>
<path d="M 82.80 192.96 A 184.32 184.32 0 0 1 374.48 114.80" stroke="#06B6D4" stroke-opacity="0.55" stroke-width="20" fill="none"/>
</g></svg>